<svg xmlns="http://www.w3.org/2000/svg" width="13" height="6" fill="none" viewBox="0 0 13 6"><path fill="#333" d="M11.18 5.36H1.82C1.1 5.36.5 4.76.5 4.04V1.96c0-.73.6-1.32 1.32-1.32h9.36c.73 0 1.32.6 1.32 1.32v2.08c0 .73-.6 1.32-1.32 1.32Z"/><path fill="#fff" d="M2.35 1.73h1.07c.21 0 .37.01.47.03.1.01.2.05.28.1.09.05.15.12.2.2a.52.52 0 0 1-.02.6.61.61 0 0 1-.27.2c.17.05.3.12.38.22.09.1.13.23.13.37a.67.67 0 0 1-.32.57c-.1.06-.21.1-.36.11-.09.01-.3.02-.65.02h-.91V1.73Zm.54.4v.56h.75c.09-.01.16-.04.22-.09a.24.24 0 0 0 .08-.19.25.25 0 0 0-.07-.18.33.33 0 0 0-.2-.09h-.78Zm0 .97v.64h.5l.37-.01a.35.35 0 0 0 .2-.1.28.28 0 0 0 .07-.2.3.3 0 0 0-.05-.19.33.33 0 0 0-.17-.1 2.03 2.03 0 0 0-.48-.04h-.44ZM7.77 4.15h-.6l-.23-.55H5.87l-.22.55h-.57l1.04-2.42h.57l1.08 2.42Zm-1-.96-.37-.9-.36.9h.73ZM8.36 4.15V1.73h1.13c.3 0 .5.03.63.07a.6.6 0 0 1 .31.23c.08.11.12.24.12.38a.6.6 0 0 1-.18.45.9.9 0 0 1-.53.22c.12.06.21.13.29.2.08.08.18.21.3.4l.34.47h-.65l-.4-.53c-.13-.18-.23-.3-.28-.35a.42.42 0 0 0-.16-.1.99.99 0 0 0-.27-.03H8.9v1h-.54Zm.54-1.4h.4c.26 0 .42 0 .48-.02a.3.3 0 0 0 .16-.1.3.3 0 0 0 .05-.19.27.27 0 0 0-.07-.2.34.34 0 0 0-.2-.09H8.9v.6Z"/></svg>