<svg xmlns="http://www.w3.org/2000/svg" width="13" height="10" fill="none" viewBox="0 0 13 10"><path fill="#FE0" d="M8.92 2.62c-2.62-.78-5.4-.3-6.7 2.38C1.56 6.3.8 6.74 1.11 7.58c.3.8 1.24.74 2.27 1.05 1.03.3 3.1.65 4.93.02a4.73 4.73 0 0 0 2.84-2.77c.4-.9.96-1.31.74-1.91-.31-.84-1.39-.88-2.98-1.35Z"/><path fill="#BA9100" d="M4.92 1.98a7.3 7.3 0 0 1 4.15.11l.15.04c.33.1.64.18.93.25.32.08.64.16.92.26.55.19 1.1.48 1.35 1.14l.01.05c.17.5 0 .93-.19 1.25-.19.35-.36.57-.54.95l-.03.07a5.28 5.28 0 0 1-3.08 3.03l-.1.04a9.2 9.2 0 0 1-5.15.02l-.1-.03a9.05 9.05 0 0 0-.71-.17c-.23-.05-.48-.1-.71-.17-.46-.15-.95-.4-1.19-.99l-.02-.06c-.12-.3-.14-.59-.08-.88.06-.27.18-.5.31-.71.28-.46.57-.8.88-1.42l.07-.14a5.13 5.13 0 0 1 3.13-2.64Zm3.84 1.17a6.2 6.2 0 0 0-3.53-.11c-1.03.31-1.93 1-2.52 2.2-.33.68-.75 1.21-.93 1.51-.1.17-.15.28-.17.37a.46.46 0 0 0 .03.27l.01.03c.07.15.19.25.5.34.16.06.36.1.6.15.24.05.52.1.8.19l.1.03c1 .28 2.87.55 4.49 0l.07-.03a4.19 4.19 0 0 0 2.45-2.44l.04-.09c.2-.44.47-.83.58-1.03.12-.21.13-.3.11-.35v-.03c-.08-.18-.22-.32-.68-.48-.23-.08-.5-.15-.83-.23l-.97-.26-.15-.04Z"/><path fill="#fff" d="M4.56 4.95a.41.41 0 0 1-.7-.45l.7.45Zm.94-1.62a.41.41 0 0 1 .17.81.59.59 0 0 0-.1.03 1.95 1.95 0 0 0-1.01.78l-.7-.45a2.76 2.76 0 0 1 1.62-1.16h.02l.09.4v.04l-.09-.45Z"/><path fill="#BA9100" d="M5.89 5.75c.15.2.07.46-.18.58-.25.12-.56.06-.71-.14-.15-.2-.07-.46.18-.58.25-.12.56-.06.71.14ZM4.7 6.97c0 .23-.23.43-.52.43-.28 0-.52-.18-.52-.42 0-.23.22-.42.5-.43.3 0 .53.19.53.42ZM6.48 7.4c0 .23-.22.42-.51.42-.29 0-.52-.18-.53-.42 0-.23.23-.42.52-.42.28 0 .52.18.52.41Z"/><path fill="#00CD00" d="M11.5 3.3c-4.52 1-4.91-1.91-4.92-1.98C10.74-.02 11.5 3.3 11.5 3.3Z"/><path fill="#246D00" d="M6.52.76c2.18-.67 3.6-.16 4.46.64a3.8 3.8 0 0 1 1.05 1.75v.02l-.53.13.53-.13a.55.55 0 0 1-.41.66c-2.38.53-3.81.05-4.65-.72-.73-.67-.9-1.49-.93-1.69A.55.55 0 0 1 6.41.8l.1-.03Zm3.7 1.45c-.49-.46-1.36-.9-2.95-.52.1.2.23.41.45.61.44.4 1.3.83 3.02.58a2.64 2.64 0 0 0-.52-.67Z"/></svg>