<svg xmlns="http://www.w3.org/2000/svg" width="11" height="12" fill="none" viewBox="0 0 11 12"><path fill="#AE5505" d="M2.98 8a.44.44 0 0 1 .07-.83c.02 0 1.82-.45 2.9-1.67a7.04 7.04 0 0 0 1.41-2.98.44.44 0 0 1 .87.16 7.83 7.83 0 0 1-1.63 3.4 7.2 7.2 0 0 1-3.35 1.95.44.44 0 0 1-.27-.02Z"/><path fill="#00DB00" d="M7.56 2.52s-1.94-1.22-3.38-.4c0 0-1.3.73-1.8 2.07-.23.58 2.05 1 2.93.58.87-.42 1.8-.9 2.25-2.25Z"/><path fill="#007400" d="M7.12 4.2a5.2 5.2 0 0 1-1.93 1.15c-.45.12-1.03.13-1.57.06-1.2-.17-2.29-.66-1.48-1.91A5.23 5.23 0 0 1 3.9 1.68c1.42-.88 3.56.13 3.9.37.27.17.32.5.19.79-.22.58-.5 1-.86 1.35l-.01.01Zm-4.17 0c.01.06.13.09.25.12a3.83 3.83 0 0 0 1.73.06c.22-.08.46-.21.68-.33.5-.28.9-.6 1.2-1.09.09-.12.11-.26-.05-.32-.72-.3-1.62-.5-2.37-.06-.14.09-.77.51-1.24 1.2-.07.13-.2.28-.2.41Z"/><path fill="#AE5505" d="M8.77 7.22a.44.44 0 0 1-.43-.53c0-.02.37-1.84-.27-3.33A7.04 7.04 0 0 0 6 .8.44.44 0 0 1 6.5.08a7.83 7.83 0 0 1 2.38 2.93 7.2 7.2 0 0 1 .33 3.86.44.44 0 0 1-.44.35Z"/><path fill="#6324E4" d="M7.98 7.25a2.39 2.39 0 1 1-4.78 0 2.39 2.39 0 0 1 4.78 0Z"/><path fill="#171B67" d="M5.56 10.11a2.9 2.9 0 1 1 0-5.78 2.9 2.9 0 0 1 0 5.78Zm0-4.77a1.89 1.89 0 1 0 0 3.77 1.89 1.89 0 0 0 0-3.77Z"/><path fill="#8E48FF" d="M10.28 9.14a2.39 2.39 0 1 1-4.78 0 2.39 2.39 0 0 1 4.78 0Z"/><path fill="#2D298F" d="M7.86 12a2.9 2.9 0 1 1 0-5.78 2.9 2.9 0 0 1 0 5.78Zm0-4.78a1.89 1.89 0 1 0 0 3.78 1.89 1.89 0 0 0 0-3.78Z"/><path fill="#8E48FF" d="M5.56 9.14a2.39 2.39 0 1 1-4.78 0 2.39 2.39 0 0 1 4.78 0Z"/><path fill="#2D298F" d="M3.14 12a2.9 2.9 0 1 1 0-5.78 2.9 2.9 0 0 1 0 5.78Zm0-4.78a1.89 1.89 0 1 0 0 3.78 1.89 1.89 0 0 0 0-3.78Z"/><path fill="#fff" d="M2.05 8.84a.35.35 0 0 1-.31-.52c.01-.02.12-.22.32-.4.3-.27.65-.38 1-.3a.35.35 0 0 1-.14.69c-.32-.07-.56.35-.56.35a.36.36 0 0 1-.31.18ZM6.83 8.83a.35.35 0 0 1-.31-.52c.01-.02.12-.22.33-.4.3-.27.64-.38 1-.3a.35.35 0 0 1-.14.69c-.33-.07-.57.35-.57.35a.36.36 0 0 1-.3.18Z"/></svg>