<svg xmlns="http://www.w3.org/2000/svg" width="11" height="12" fill="none" viewBox="0 0 11 12"><path fill="url(#a)" d="M3.55 3.98H1.17V.48h8.66v2.35S7.62 4.41 7.7 7.6c.06 2.93 1.08 3.93 1.08 3.93H3.98s-.92-4.3 1.18-8.2c0 0-1.27 0-1.61.66Z"/><path fill="#81000B" d="M9.83 0h.03c.25.01.45.22.45.48v2.35c0 .16-.08.3-.2.39l-.01.01a2.1 2.1 0 0 0-.28.24 5.5 5.5 0 0 0-1.65 4.1v.14c.04 1.34.3 2.22.52 2.76a3.29 3.29 0 0 0 .42.71l.02.03a.48.48 0 0 1-.36.79H3.98a.48.48 0 0 1-.47-.38l.47-.1-.47.1v-.02a3.6 3.6 0 0 1-.04-.2l-.08-.56c-.05-.48-.1-1.16-.09-1.97.03-1.39.26-3.16 1.02-4.92-.18.07-.3.16-.35.25a.48.48 0 0 1-.42.26H1.17a.48.48 0 0 1-.48-.48V.45A.48.48 0 0 1 1.17 0h8.66ZM1.65 3.5H3.3c.31-.35.77-.5 1.07-.57a3.87 3.87 0 0 1 .78-.1v.48-.47a.48.48 0 0 1 .43.7c-1 1.86-1.29 3.83-1.32 5.35a13.84 13.84 0 0 0 .12 2.15H7.9a8.61 8.61 0 0 1-.69-3.3V7.6a6.46 6.46 0 0 1 2.14-5V.96h-7.7V3.5Zm8.46-.28Z"/><defs><linearGradient id="a" x1="5.41" x2="5.41" y1=".66" y2="11.2" gradientUnits="userSpaceOnUse"><stop stop-color="#E60000"/><stop offset=".14" stop-color="#F30000"/><stop offset=".5" stop-color="red"/><stop offset=".86" stop-color="#ED0000"/><stop offset="1" stop-color="#DC0000"/></linearGradient></defs></svg>